<mxfile host="65bd71144e">
    <diagram id="HIP3nbAZw_EuaXWnEj3U" name="Page-1">
        <mxGraphModel dx="1108" dy="774" grid="1" gridSize="10" guides="1" tooltips="1" connect="1" arrows="1" fold="1" page="1" pageScale="1" pageWidth="850" pageHeight="1100" math="0" shadow="0">
            <root>
                <mxCell id="0"/>
                <mxCell id="1" parent="0"/>
                <mxCell id="7" value="http://ics2o.mths.ca" style="swimlane;whiteSpace=wrap;html=1;" parent="1" vertex="1">
                    <mxGeometry x="45" y="80" width="775" height="480" as="geometry"/>
                </mxCell>
                <mxCell id="8" value="&lt;font style=&quot;font-size: 18px;&quot;&gt;Area of Trapezoid, in JS&lt;/font&gt;" style="text;html=1;strokeColor=none;fillColor=none;align=center;verticalAlign=middle;whiteSpace=wrap;rounded=0;" vertex="1" parent="7">
                    <mxGeometry x="35" y="40" width="205" height="30" as="geometry"/>
                </mxCell>
                <mxCell id="9" value="&lt;font style=&quot;font-size: 14px;&quot;&gt;Formula&lt;br&gt;A = [(a + b) / 2] h&lt;/font&gt;" style="text;html=1;strokeColor=none;fillColor=none;align=center;verticalAlign=middle;whiteSpace=wrap;rounded=0;" vertex="1" parent="7">
                    <mxGeometry x="35" y="80" width="125" height="30" as="geometry"/>
                </mxCell>
                <mxCell id="11" value="a base:" style="text;html=1;strokeColor=none;fillColor=none;align=center;verticalAlign=middle;whiteSpace=wrap;rounded=0;fontSize=14;" vertex="1" parent="7">
                    <mxGeometry x="35" y="180" width="60" height="30" as="geometry"/>
                </mxCell>
                <mxCell id="12" value="b base:" style="text;html=1;strokeColor=none;fillColor=none;align=center;verticalAlign=middle;whiteSpace=wrap;rounded=0;fontSize=14;" vertex="1" parent="7">
                    <mxGeometry x="35" y="225" width="60" height="30" as="geometry"/>
                </mxCell>
                <mxCell id="14" value="" style="rounded=1;whiteSpace=wrap;html=1;fontSize=14;" vertex="1" parent="7">
                    <mxGeometry x="95" y="186.5" width="120" height="17" as="geometry"/>
                </mxCell>
                <mxCell id="17" value="mm" style="text;html=1;strokeColor=none;fillColor=none;align=center;verticalAlign=middle;whiteSpace=wrap;rounded=0;fontSize=14;" vertex="1" parent="7">
                    <mxGeometry x="225" y="180" width="60" height="30" as="geometry"/>
                </mxCell>
                <mxCell id="20" value="Calculate Area" style="rounded=1;whiteSpace=wrap;html=1;fontSize=14;" vertex="1" parent="7">
                    <mxGeometry x="35" y="330" width="120" height="30" as="geometry"/>
                </mxCell>
                <mxCell id="21" value="Area is: 40mm&lt;span style=&quot;color: rgb(189, 193, 198); font-family: &amp;quot;Google Sans&amp;quot;, arial, sans-serif; font-size: 16px; text-align: start; background-color: rgb(32, 33, 36);&quot;&gt;²&lt;/span&gt;" style="text;html=1;strokeColor=none;fillColor=none;align=center;verticalAlign=middle;whiteSpace=wrap;rounded=0;fontSize=14;" vertex="1" parent="7">
                    <mxGeometry x="35" y="380" width="105" height="30" as="geometry"/>
                </mxCell>
                <mxCell id="22" value="" style="shape=trapezoid;perimeter=trapezoidPerimeter;whiteSpace=wrap;html=1;fixedSize=1;fontSize=14;" vertex="1" parent="7">
                    <mxGeometry x="470" y="190" width="155" height="80" as="geometry"/>
                </mxCell>
                <mxCell id="24" value="b&lt;span style=&quot;color: rgb(189, 193, 198); font-size: 16px; text-align: start;&quot;&gt;₂&lt;/span&gt;" style="text;html=1;strokeColor=none;fillColor=none;align=center;verticalAlign=middle;whiteSpace=wrap;rounded=0;fontSize=14;" vertex="1" parent="7">
                    <mxGeometry x="517.5" y="270.5" width="60" height="30" as="geometry"/>
                </mxCell>
                <mxCell id="26" value="" style="endArrow=none;dashed=1;html=1;fontFamily=Helvetica;fontSize=14;fillColor=#FF0000;" edge="1" parent="7">
                    <mxGeometry width="50" height="50" relative="1" as="geometry">
                        <mxPoint x="605" y="270" as="sourcePoint"/>
                        <mxPoint x="605" y="190" as="targetPoint"/>
                        <Array as="points">
                            <mxPoint x="605" y="210"/>
                        </Array>
                    </mxGeometry>
                </mxCell>
                <mxCell id="27" value="" style="whiteSpace=wrap;html=1;aspect=fixed;labelBackgroundColor=none;fontFamily=Helvetica;fontSize=14;fillColor=#FF0000;" vertex="1" parent="7">
                    <mxGeometry x="606" y="255" width="15" height="15" as="geometry"/>
                </mxCell>
                <mxCell id="30" value="A =&amp;nbsp;" style="text;html=1;strokeColor=none;fillColor=none;align=center;verticalAlign=middle;whiteSpace=wrap;rounded=0;labelBackgroundColor=none;fontFamily=Helvetica;fontSize=14;" vertex="1" parent="7">
                    <mxGeometry x="505" y="330" width="60" height="30" as="geometry"/>
                </mxCell>
                <mxCell id="31" value="" style="endArrow=none;html=1;fontFamily=Helvetica;fontSize=14;fillColor=#FF0000;" edge="1" parent="7">
                    <mxGeometry width="50" height="50" relative="1" as="geometry">
                        <mxPoint x="548" y="345" as="sourcePoint"/>
                        <mxPoint x="648" y="345" as="targetPoint"/>
                    </mxGeometry>
                </mxCell>
                <mxCell id="34" value="(b&lt;span style=&quot;color: rgb(189, 193, 198); font-family: &amp;quot;Google Sans&amp;quot;, arial, sans-serif; font-size: 16px; text-align: start;&quot;&gt;₁ +&amp;nbsp;&lt;/span&gt;b&lt;span style=&quot;color: rgb(189, 193, 198); font-size: 16px; text-align: start;&quot;&gt;₂)h&lt;/span&gt;" style="text;html=1;strokeColor=none;fillColor=none;align=center;verticalAlign=middle;whiteSpace=wrap;rounded=0;labelBackgroundColor=none;fontFamily=Helvetica;fontSize=14;" vertex="1" parent="7">
                    <mxGeometry x="545" y="310" width="102" height="30" as="geometry"/>
                </mxCell>
                <mxCell id="10" value="&lt;span style=&quot;font-size: 14px;&quot;&gt;Please enter integers for dimensions:&lt;/span&gt;" style="text;html=1;strokeColor=none;fillColor=none;align=center;verticalAlign=middle;whiteSpace=wrap;rounded=0;" vertex="1" parent="1">
                    <mxGeometry x="80" y="217" width="250" height="30" as="geometry"/>
                </mxCell>
                <mxCell id="13" value="height:" style="text;html=1;strokeColor=none;fillColor=none;align=center;verticalAlign=middle;whiteSpace=wrap;rounded=0;fontSize=14;" vertex="1" parent="1">
                    <mxGeometry x="80" y="348" width="60" height="30" as="geometry"/>
                </mxCell>
                <mxCell id="15" value="" style="rounded=1;whiteSpace=wrap;html=1;fontSize=14;" vertex="1" parent="1">
                    <mxGeometry x="140" y="309.5" width="120" height="17" as="geometry"/>
                </mxCell>
                <mxCell id="16" value="" style="rounded=1;whiteSpace=wrap;html=1;fontSize=14;" vertex="1" parent="1">
                    <mxGeometry x="140" y="354.5" width="120" height="17" as="geometry"/>
                </mxCell>
                <mxCell id="18" value="mm" style="text;html=1;strokeColor=none;fillColor=none;align=center;verticalAlign=middle;whiteSpace=wrap;rounded=0;fontSize=14;" vertex="1" parent="1">
                    <mxGeometry x="271" y="304" width="60" height="30" as="geometry"/>
                </mxCell>
                <mxCell id="19" value="mm" style="text;html=1;strokeColor=none;fillColor=none;align=center;verticalAlign=middle;whiteSpace=wrap;rounded=0;fontSize=14;" vertex="1" parent="1">
                    <mxGeometry x="271" y="348" width="60" height="30" as="geometry"/>
                </mxCell>
                <mxCell id="25" value="b&lt;span style=&quot;color: rgb(189, 193, 198); font-family: &amp;quot;Google Sans&amp;quot;, arial, sans-serif; font-size: 16px; text-align: start;&quot;&gt;₁&lt;/span&gt;" style="text;html=1;strokeColor=none;fillColor=none;align=center;verticalAlign=middle;whiteSpace=wrap;rounded=0;fontSize=14;" vertex="1" parent="1">
                    <mxGeometry x="572.5" y="239.5" width="60" height="30" as="geometry"/>
                </mxCell>
                <mxCell id="29" value="h" style="text;html=1;strokeColor=none;fillColor=none;align=center;verticalAlign=middle;whiteSpace=wrap;rounded=0;fontSize=14;" vertex="1" parent="1">
                    <mxGeometry x="599.5" y="292.5" width="60" height="30" as="geometry"/>
                </mxCell>
                <mxCell id="35" value="2" style="text;html=1;strokeColor=none;fillColor=none;align=center;verticalAlign=middle;whiteSpace=wrap;rounded=0;labelBackgroundColor=none;fontFamily=Helvetica;fontSize=14;" vertex="1" parent="1">
                    <mxGeometry x="591" y="431" width="102" height="30" as="geometry"/>
                </mxCell>
            </root>
        </mxGraphModel>
    </diagram>
</mxfile>